<svg width="14" height="15" viewBox="0 0 14 15" fill="none" xmlns="http://www.w3.org/2000/svg">
<g id="delete">
<path id="Vector" d="M9.47467 14.2913H4.12082C3.58517 14.2836 3.07219 14.0739 2.68445 13.7043C2.29671 13.3346 2.06279 12.8322 2.02948 12.2976L1.3951 2.64949C1.39185 2.57954 1.4025 2.50964 1.42643 2.44383C1.45036 2.37801 1.4871 2.3176 1.53453 2.26608C1.58338 2.21268 1.64254 2.16971 1.70843 2.13976C1.77432 2.10981 1.84558 2.0935 1.91794 2.0918H11.6776C11.7492 2.09164 11.8202 2.10623 11.886 2.13465C11.9518 2.16308 12.0111 2.20474 12.0601 2.25704C12.1092 2.30935 12.1469 2.37118 12.1711 2.43869C12.1952 2.5062 12.2052 2.57796 12.2004 2.64949L11.5939 12.2976C11.5602 12.837 11.3224 13.3434 10.9287 13.7137C10.5351 14.0841 10.0152 14.2906 9.47467 14.2913ZM2.50352 3.13747L3.0403 12.2348C3.05803 12.5091 3.17965 12.7664 3.3804 12.9542C3.58115 13.142 3.84593 13.2462 4.12082 13.2456H9.47467C9.74908 13.2446 10.0129 13.1398 10.2133 12.9523C10.4137 12.7649 10.5359 12.5086 10.5552 12.2348L11.1199 3.17233L2.50352 3.13747Z" fill="#6F6B6B"/>
<path id="Vector_2" d="M13.0709 3.13747H0.522837C0.384172 3.13747 0.251186 3.08239 0.153135 2.98433C0.0550843 2.88628 0 2.7533 0 2.61463C0 2.47597 0.0550843 2.34298 0.153135 2.24493C0.251186 2.14688 0.384172 2.0918 0.522837 2.0918H13.0709C13.2096 2.0918 13.3426 2.14688 13.4406 2.24493C13.5387 2.34298 13.5937 2.47597 13.5937 2.61463C13.5937 2.7533 13.5387 2.88628 13.4406 2.98433C13.3426 3.08239 13.2096 3.13747 13.0709 3.13747V3.13747Z" fill="#6F6B6B"/>
<path id="Vector_3" d="M8.88912 3.13702H4.70643C4.56833 3.13521 4.43639 3.07955 4.33873 2.98189C4.24106 2.88423 4.1854 2.75229 4.18359 2.61418V1.35937C4.19243 1.00163 4.33849 0.660977 4.59153 0.407936C4.84457 0.154894 5.18522 0.00883725 5.54297 0H8.05258C8.41628 0.00909529 8.76202 0.159993 9.016 0.420482C9.26998 0.680972 9.41207 1.03042 9.41196 1.39423V2.61418C9.41015 2.75229 9.35449 2.88423 9.25683 2.98189C9.15916 3.07955 9.02723 3.13521 8.88912 3.13702V3.13702ZM5.22927 2.09135H8.36629V1.39423C8.36629 1.31103 8.33324 1.23124 8.2744 1.17241C8.21557 1.11358 8.13578 1.08053 8.05258 1.08053H5.54297C5.45977 1.08053 5.37998 1.11358 5.32115 1.17241C5.26232 1.23124 5.22927 1.31103 5.22927 1.39423V2.09135Z" fill="#6F6B6B"/>
<path id="Vector_4" d="M8.71523 11.5015C8.62278 11.4997 8.53446 11.444 8.46908 11.3464C8.40371 11.2487 8.36644 11.1168 8.36523 10.9787V5.40174C8.36523 5.26308 8.40211 5.13009 8.46775 5.03204C8.53338 4.93399 8.62241 4.87891 8.71523 4.87891C8.80806 4.87891 8.89708 4.93399 8.96272 5.03204C9.02836 5.13009 9.06523 5.26308 9.06523 5.40174V10.9787C9.06403 11.1168 9.02676 11.2487 8.96139 11.3464C8.89601 11.444 8.80768 11.4997 8.71523 11.5015V11.5015Z" fill="#6F6B6B"/>
<path id="Vector_5" d="M4.53359 11.5015C4.44114 11.4997 4.35282 11.444 4.28744 11.3464C4.22207 11.2487 4.1848 11.1168 4.18359 10.9787V5.40174C4.18359 5.26308 4.22047 5.13009 4.28611 5.03204C4.35174 4.93399 4.44077 4.87891 4.53359 4.87891C4.62642 4.87891 4.71544 4.93399 4.78108 5.03204C4.84672 5.13009 4.88359 5.26308 4.88359 5.40174V10.9787C4.88239 11.1168 4.84512 11.2487 4.77974 11.3464C4.71437 11.444 4.62604 11.4997 4.53359 11.5015V11.5015Z" fill="#6F6B6B"/>
<path id="Vector_6" d="M6.62344 11.5015C6.53099 11.4997 6.44266 11.444 6.37729 11.3464C6.31191 11.2487 6.27465 11.1168 6.27344 10.9787V5.40174C6.27344 5.26308 6.31031 5.13009 6.37595 5.03204C6.44159 4.93399 6.53061 4.87891 6.62344 4.87891C6.71626 4.87891 6.80529 4.93399 6.87092 5.03204C6.93656 5.13009 6.97344 5.26308 6.97344 5.40174V10.9787C6.97223 11.1168 6.93497 11.2487 6.86959 11.3464C6.80421 11.444 6.71589 11.4997 6.62344 11.5015V11.5015Z" fill="#6F6B6B"/>
</g>
</svg>
