<svg width="14" height="14" viewBox="0 0 14 14" fill="none" xmlns="http://www.w3.org/2000/svg">
<g id="edit (1) 1" clip-path="url(#clip0_820_4442)">
<path id="Vector" d="M11.5268 13.4856L11.5269 13.4856C12.2148 13.4849 12.772 12.9275 12.7728 12.2398V12.2396V9.14374C12.7728 9.06161 12.8393 8.99507 12.9214 8.99507C13.0036 8.99507 13.0701 9.06161 13.0701 9.14374V12.2395C13.0692 13.0916 12.3786 13.7821 11.5265 13.7831H1.74359C0.891517 13.7821 0.201027 13.0917 0.2 12.2396V3.15363C0.201027 2.30161 0.891455 1.61118 1.74347 1.61016H4.83919C4.92127 1.61016 4.98787 1.67678 4.98787 1.75883C4.98787 1.84096 4.92132 1.9075 4.83919 1.9075L1.74336 1.9075L1.74313 1.9075C1.05535 1.90831 0.498156 2.46567 0.497345 3.15328V3.15352L0.497345 12.2396L0.497345 12.2398C0.498156 12.9275 1.05533 13.4849 1.74317 13.4856H1.74336H11.5268Z" fill="#6F6B6B" stroke="#6F6B6B" stroke-width="0.4"/>
<path id="Vector_2" d="M13.1312 0.512308C12.5185 -0.100457 11.525 -0.100457 10.9122 0.512308L4.69171 6.73284C4.64908 6.77547 4.6183 6.82832 4.60223 6.88634L3.78421 9.83957C3.75057 9.96065 3.78475 10.0903 3.87356 10.1793C3.96249 10.2681 4.09216 10.3022 4.21324 10.2687L7.16647 9.45058C7.22449 9.43451 7.27733 9.40373 7.31997 9.3611L13.5404 3.14043C14.1522 2.52725 14.1522 1.53463 13.5404 0.921453L13.1312 0.512308ZM5.45143 6.95948L10.5425 1.86832L12.1844 3.51021L7.09319 8.60137L5.45143 6.95948ZM5.12346 7.6176L6.43521 8.92948L4.62075 9.43219L5.12346 7.6176ZM13.0473 2.64738L12.6775 3.01717L11.0355 1.37514L11.4054 1.00535C11.7458 0.664988 12.2977 0.664988 12.638 1.00535L13.0473 1.4145C13.3871 1.75527 13.3871 2.30675 13.0473 2.64738V2.64738Z" fill="#6F6B6B"/>
</g>
<defs>
<clipPath id="clip0_820_4442">
<rect width="14" height="14" fill="white"/>
</clipPath>
</defs>
</svg>
